<svg width="1573" height="870" viewBox="0 0 1573 870" fill="none" xmlns="http://www.w3.org/2000/svg">
    <path d="M1573 435.5L1179.75 1116.63H393.25L0 435.5L393.25 -245.629H1179.75L1573 435.5Z" fill="#F4F4F5"/>
    <path d="M1172.53 1104.13H400.467L14.4346 435.499L400.467 -233.129H1172.53L1558.57 435.5L1172.53 1104.13Z" stroke="#52525B" stroke-opacity="0.9" stroke-width="25"/>
    <path d="M879.949 604.803H694.052L600.845 435L694.052 265.197H879.949L973.156 435L879.949 604.803Z" stroke="#52525B" stroke-opacity="0.9" stroke-width="12"/>
    <path d="M1256.95 604.803H1071.05L977.845 435L1071.05 265.197H1256.95L1350.16 435L1256.95 604.803Z" stroke="#52525B" stroke-opacity="0.9" stroke-width="12"/>
    <path d="M502.949 604.803H317.052L223.845 435L317.052 265.197H502.949L596.156 435L502.949 604.803Z" stroke="#52525B" stroke-opacity="0.9" stroke-width="12"/>
    <path d="M1244.41 763.437L1302.5 796.72L1244.63 830.386L1244.41 763.437Z" fill="#F97316"/>
    <path d="M1280.41 702.437L1338.5 735.72L1280.63 769.386L1280.41 702.437Z" fill="#F97316"/>
    <path d="M1315.41 641.437L1373.5 674.72L1315.63 708.386L1315.41 641.437Z" fill="#F97316"/>
    <path d="M329.285 108.258L271.195 74.976L329.063 41.3096L329.285 108.258Z" fill="#F97316"/>
    <path d="M293.285 169.258L235.195 135.976L293.063 102.31L293.285 169.258Z" fill="#F97316"/>
    <path d="M258.285 230.258L200.195 196.976L258.063 163.31L258.285 230.258Z" fill="#F97316"/>
</svg>
